<svg
  width="543"
  height="50"
  viewBox="0 0 543 50"
  fill="none"
  xmlns="http://www.w3.org/2000/svg">
  <path
    d="M45 1H54L20 24.5L55 49H46L14 27H6V49H0V1H6V22H14L45 1Z"
    fill="currentColor" />
  <path d="M79.64 49V1H85.64V44H123.64V49H79.64Z" fill="currentColor" />
  <path
    d="M186.311 0C189.978 0 193.061 0.229167 195.561 0.6875C198.082 1.125 200.155 1.80208 201.78 2.71875C203.405 3.61458 204.655 4.75 205.53 6.125C206.405 7.5 207.04 9.11458 207.436 10.9688C207.853 12.8229 208.092 14.9167 208.155 17.25C208.238 19.5833 208.28 22.1667 208.28 25C208.28 27.8333 208.238 30.4167 208.155 32.75C208.092 35.0833 207.853 37.1771 207.436 39.0312C207.04 40.8854 206.405 42.5 205.53 43.875C204.655 45.25 203.405 46.3958 201.78 47.3125C200.155 48.2083 198.082 48.875 195.561 49.3125C193.061 49.7708 189.978 50 186.311 50H168.249C164.582 50 161.488 49.7708 158.967 49.3125C156.467 48.875 154.405 48.2083 152.78 47.3125C151.155 46.3958 149.895 45.25 148.999 43.875C148.124 42.5 147.478 40.8854 147.061 39.0312C146.665 37.1771 146.436 35.0833 146.374 32.75C146.311 30.4167 146.28 27.8333 146.28 25C146.28 22.1667 146.311 19.5833 146.374 17.25C146.436 14.9167 146.665 12.8229 147.061 10.9688C147.478 9.11458 148.124 7.5 148.999 6.125C149.895 4.75 151.155 3.61458 152.78 2.71875C154.405 1.80208 156.467 1.125 158.967 0.6875C161.488 0.229167 164.582 0 168.249 0H186.311ZM186.311 45C188.957 45 191.186 44.9271 192.999 44.7812C194.832 44.6146 196.342 44.2917 197.53 43.8125C198.717 43.3333 199.634 42.6458 200.28 41.75C200.926 40.8542 201.395 39.6667 201.686 38.1875C201.978 36.7083 202.145 34.8958 202.186 32.75C202.249 30.5833 202.28 28 202.28 25C202.28 22 202.249 19.4271 202.186 17.2812C202.145 15.1146 201.978 13.2917 201.686 11.8125C201.395 10.3333 200.926 9.14583 200.28 8.25C199.634 7.35417 198.717 6.66667 197.53 6.1875C196.363 5.70833 194.863 5.39583 193.03 5.25C191.217 5.08333 188.978 5 186.311 5H168.249C165.582 5 163.332 5.08333 161.499 5.25C159.686 5.39583 158.186 5.70833 156.999 6.1875C155.811 6.66667 154.895 7.35417 154.249 8.25C153.603 9.14583 153.134 10.3333 152.842 11.8125C152.551 13.2917 152.384 15.1146 152.342 17.2812C152.301 19.4271 152.28 22 152.28 25C152.28 28 152.301 30.5833 152.342 32.75C152.405 34.8958 152.582 36.7083 152.874 38.1875C153.165 39.6667 153.624 40.8542 154.249 41.75C154.895 42.6458 155.811 43.3333 156.999 43.8125C158.186 44.2917 159.686 44.6146 161.499 44.7812C163.332 44.9271 165.582 45 168.249 45H186.311Z"
    fill="currentColor" />
  <path
    d="M284.889 16C284.889 13.5 284.618 11.5208 284.076 10.0625C283.535 8.60417 282.639 7.5 281.389 6.75C280.139 6 278.493 5.52083 276.451 5.3125C274.43 5.10417 271.92 5 268.92 5H254.889C252.222 5 249.972 5.08333 248.139 5.25C246.326 5.39583 244.826 5.70833 243.639 6.1875C242.451 6.66667 241.535 7.35417 240.889 8.25C240.243 9.14583 239.774 10.3333 239.482 11.8125C239.191 13.2917 239.024 15.1146 238.982 17.2812C238.941 19.4271 238.92 22 238.92 25C238.92 28 238.941 30.5833 238.982 32.75C239.045 34.8958 239.222 36.7083 239.514 38.1875C239.805 39.6667 240.264 40.8542 240.889 41.75C241.535 42.6458 242.451 43.3333 243.639 43.8125C244.826 44.2917 246.326 44.6146 248.139 44.7812C249.972 44.9271 252.222 45 254.889 45H268.92C271.253 45 273.264 44.9375 274.951 44.8125C276.639 44.6875 278.076 44.4583 279.264 44.125C280.451 43.7917 281.41 43.3333 282.139 42.75C282.868 42.1667 283.43 41.4375 283.826 40.5625C284.243 39.6667 284.524 38.6042 284.67 37.375C284.816 36.125 284.889 34.6667 284.889 33H290.889C290.889 35 290.764 36.8125 290.514 38.4375C290.264 40.0417 289.816 41.4792 289.17 42.75C288.545 44 287.701 45.0833 286.639 46C285.576 46.9167 284.232 47.6771 282.607 48.2812C280.982 48.8646 279.045 49.2917 276.795 49.5625C274.545 49.8542 271.92 50 268.92 50H254.889C251.222 50 248.128 49.7708 245.607 49.3125C243.107 48.875 241.045 48.2083 239.42 47.3125C237.795 46.3958 236.535 45.25 235.639 43.875C234.764 42.5 234.118 40.8854 233.701 39.0312C233.305 37.1771 233.076 35.0833 233.014 32.75C232.951 30.4167 232.92 27.8333 232.92 25C232.92 22.1667 232.951 19.5833 233.014 17.25C233.076 14.9167 233.305 12.8229 233.701 10.9688C234.118 9.11458 234.764 7.5 235.639 6.125C236.535 4.75 237.795 3.61458 239.42 2.71875C241.045 1.80208 243.107 1.125 245.607 0.6875C248.128 0.229167 251.222 0 254.889 0H268.92C271.92 0 274.545 0.145833 276.795 0.4375C279.045 0.708333 280.982 1.13542 282.607 1.71875C284.232 2.28125 285.576 3 286.639 3.875C287.701 4.75 288.545 5.78125 289.17 6.96875C289.816 8.15625 290.264 9.5 290.514 11C290.764 12.5 290.889 14.1667 290.889 16H284.889Z"
    fill="currentColor" />
  <path
    d="M362.56 1H371.56L337.56 24.5L372.56 49H363.56L331.56 27H323.56V49H317.56V1H323.56V22H331.56L362.56 1Z"
    fill="currentColor" />
  <path
    d="M444.2 38H406.2L400.2 49H393.2L421.2 1H429.2L457.2 49H450.2L444.2 38ZM441.2 33L425.2 5L409.2 33H441.2Z"
    fill="currentColor" />
  <path
    d="M487.84 49H481.84V1H492.371L536.371 43V1H542.371V49H534.371L487.84 6V49Z"
    fill="currentColor" />
</svg>
