<svg width="225" height="51" viewBox="0 0 225 51" fill="none" xmlns="http://www.w3.org/2000/svg">
<path fill-rule="evenodd" clip-rule="evenodd" d="M21.976 48H30.104L18.968 30.912L30.04 18.624H21.528L10.328 31.744L10.456 26.752V0.959961H3.864V4H0V51H6V48H10.52V39.296L14.36 35.136L16.024 38.4L21.976 48ZM6 48V4H3.864V48H6Z" fill="black"/>
<path d="M37.224 0.91996H44.072V47.96H37.224V0.91996ZM67.469 48.6C64.4397 48.6 61.7517 47.9173 59.405 46.552C57.0583 45.1866 55.245 43.3306 53.965 40.984C52.685 38.6373 52.045 36.0346 52.045 33.176C52.045 30.36 52.6637 27.7786 53.901 25.432C55.181 23.0853 56.9943 21.2293 59.341 19.864C61.6877 18.4986 64.397 17.816 67.469 17.816C70.541 17.816 73.229 18.4986 75.533 19.864C77.8797 21.2293 79.6717 23.0853 80.909 25.432C82.189 27.7786 82.829 30.36 82.829 33.176C82.829 36.0346 82.189 38.6373 80.909 40.984C79.629 43.3306 77.8157 45.1866 75.469 46.552C73.165 47.9173 70.4983 48.6 67.469 48.6ZM67.661 42.968C70.1357 42.968 72.077 42.0506 73.485 40.216C74.9357 38.3813 75.661 36.0773 75.661 33.304C75.661 30.5306 74.893 28.2053 73.357 26.328C71.821 24.408 69.7943 23.448 67.277 23.448C64.845 23.448 62.8823 24.3866 61.389 26.264C59.9383 28.1413 59.213 30.488 59.213 33.304C59.213 36.0346 60.0023 38.3386 61.581 40.216C63.1597 42.0506 65.1863 42.968 67.661 42.968ZM103.907 48.6C101.005 48.6 98.3812 47.9813 96.0345 46.744C93.7305 45.464 91.8958 43.6506 90.5305 41.304C89.1652 38.9146 88.4825 36.12 88.4825 32.92C88.4825 29.8906 89.1012 27.2453 90.3385 24.984C91.6185 22.68 93.3892 20.9093 95.6505 19.672C97.9545 18.4346 100.6 17.816 103.587 17.816C105.848 17.816 107.789 18.1146 109.411 18.712C111.075 19.2666 112.376 19.9706 113.315 20.824L110.243 26.392C108.451 24.6 106.424 23.704 104.163 23.704C101.432 23.704 99.3412 24.536 97.8905 26.2C96.4825 27.864 95.7785 30.0826 95.7785 32.856C95.7785 36.0133 96.5038 38.4666 97.9545 40.216C99.4478 41.9653 101.517 42.84 104.163 42.84C105.485 42.84 106.765 42.648 108.003 42.264C109.283 41.88 110.264 41.432 110.947 40.92L113.443 45.784C112.504 46.5093 111.181 47.1706 109.475 47.768C107.811 48.3226 105.955 48.6 103.907 48.6ZM146.583 47.96H138.455L132.503 38.36L130.839 35.096L126.999 39.256V47.96H120.343V0.91996H126.935V26.712L126.807 31.704L138.007 18.584H146.519L135.447 30.872L146.583 47.96ZM165.078 48.6C162.432 48.6 159.979 47.9813 157.718 46.744C155.499 45.464 153.707 43.672 152.342 41.368C151.019 39.0213 150.358 36.2906 150.358 33.176C150.358 30.104 150.934 27.416 152.086 25.112C153.28 22.808 154.966 21.016 157.142 19.736C159.318 18.456 161.878 17.816 164.822 17.816C166.528 17.816 168.128 18.1146 169.622 18.712C171.115 19.3093 172.374 20.056 173.398 20.952C174.422 21.8053 175.104 22.6586 175.446 23.512L175.574 18.584H182.166V47.96H175.638L175.51 42.776C174.784 44.312 173.462 45.6773 171.542 46.872C169.622 48.024 167.467 48.6 165.078 48.6ZM166.23 42.84C168.662 42.84 170.71 42.008 172.374 40.344C174.038 38.6373 174.87 36.4186 174.87 33.688V33.24C174.87 31.4053 174.486 29.7626 173.718 28.312C172.95 26.8613 171.904 25.7306 170.582 24.92C169.259 24.1093 167.808 23.704 166.23 23.704C163.499 23.704 161.387 24.6 159.894 26.392C158.4 28.1413 157.654 30.424 157.654 33.24C157.654 36.0986 158.379 38.424 159.83 40.216C161.323 41.9653 163.456 42.84 166.23 42.84ZM191.461 18.584H198.245L198.309 23.96C199.119 22.168 200.399 20.696 202.149 19.544C203.898 18.392 205.946 17.816 208.293 17.816C211.322 17.816 213.647 18.456 215.269 19.736C216.89 20.9733 217.978 22.7226 218.533 24.984C219.087 27.2453 219.365 30.1893 219.365 33.816V47.96H212.453V34.008C212.453 30.296 212.09 27.6293 211.365 26.008C210.639 24.344 209.146 23.512 206.885 23.512C205.605 23.512 204.303 23.9173 202.981 24.728C201.658 25.496 200.549 26.6266 199.653 28.12C198.799 29.6133 198.373 31.3626 198.373 33.368V47.96H191.461V18.584Z" fill="black"/>
</svg>
